<?xml version="1.0" encoding="UTF-8"?>
<svg width="2111px" height="726px" viewBox="0 0 2111 726" version="1.1" xmlns="http://www.w3.org/2000/svg" xmlns:xlink="http://www.w3.org/1999/xlink">
    <title>45b-logo-dark</title>
    <g id="Page-1" stroke="none" stroke-width="1" fill="none" fill-rule="evenodd">
        <g id="45b-logo-para-tela-banca" transform="translate(-464, -340)" fill-rule="nonzero">
            <g id="Group" transform="translate(463.81, 339.91)">
                <g transform="translate(0.37, -0)">
                    <path d="M457.76,471.23 L305.88,471.23 C235.43,509.82 181.61,553.01 145.15,599.75 L458.12,599.75 L458.12,726.14 L612.84,726.14 L612.84,599.75 L708.78,599.75 L708.78,471.23 L612.48,471.23 L612.48,355.46 C556.9,369.98 505.21,386.26 457.76,403.26 L457.76,471.24 L457.76,471.24 L457.76,471.23 Z" id="Path" fill="#FFFFFF"></path>
                    <path d="M173.11,471.23 L172.76,471.23 L458.12,161.09 L458.12,326.43 C508.04,309.08 559.73,293.86 612.84,280.4 L612.84,0.01 L409.27,0.01 L0,446.45 L0,600.1 L57.35,600.1 L70.45,580.27 C96.3,539.91 131.35,503.8 173.12,471.23 L173.12,471.23 L173.11,471.23 Z" id="Path" fill="#868787"></path>
                    <path d="M760.46,321.83 L760.46,423.44 L1078.39,423.44 C1136.1,423.44 1168.67,426.63 1182.83,433.35 C1209.03,445.39 1226.38,476.9 1226.38,511.59 C1226.38,542.04 1214.34,567.17 1191.68,581.34 C1175.39,591.25 1130.79,597.63 1078.39,597.63 L760.46,597.63 L760.46,726.15 L1078.39,726.15 C1178.58,726.15 1234.17,718.36 1279.84,697.83 C1354.9,662.07 1396.32,594.45 1396.32,504.17 C1396.32,432.3 1369.06,372.47 1320.2,334.23 C1283.03,305.91 1235.23,294.93 1144.95,294.93 L915.53,294.93 C892.52,298.47 869.5,302.01 846.49,305.91 C816.75,310.87 788.07,316.18 760.46,321.84 L760.46,321.84 L760.46,321.83 Z" id="Path" fill="#FFFFFF"></path>
                    <path d="M915.18,128.52 L1357.02,128.52 L1357.02,0 L760.46,0 L760.46,247.47 C812.5,237.2 864.19,228.71 915.18,221.27 L915.18,128.51 L915.18,128.51 L915.18,128.52 Z" id="Path" fill="#868787"></path>
                    <path d="M2100.86,250.31 L1929.86,250.31 C1924.2,262.35 1915.7,272.97 1905.79,281.11 C1887.38,295.27 1872.16,298.46 1828.61,298.46 L1618.66,298.46 L1618.66,250.31 L1463.94,250.31 L1463.94,726.14 L1865.78,726.14 C1935.53,726.14 1980.14,720.83 2009.52,707.73 C2073.6,679.41 2110.78,617.45 2110.78,533.54 C2110.78,449.63 2075.02,395.11 2005.28,363.6 C2049.18,344.48 2084.59,301.29 2100.87,250.31 L2100.87,250.31 L2100.86,250.31 Z M1906.85,579.21 C1888.44,593.37 1873.22,596.56 1828.61,596.56 L1618.66,596.56 L1618.66,427.68 L1832.15,427.68 C1873.57,427.68 1890.92,430.87 1909.33,442.9 C1928.8,456 1940.84,478.66 1940.84,506.98 C1940.49,535.66 1927.39,562.92 1906.85,579.2 L1906.85,579.2 L1906.85,579.21 Z" id="Shape" fill="#FFFFFF"></path>
                    <path d="M1618.3,129.58 L1831.79,129.58 C1873.21,129.58 1889.5,132.77 1907.91,144.8 C1919.59,152.59 1928.44,163.92 1933.76,177.73 L2110.07,177.73 C2105.82,110.82 2069,49.57 2014.83,21.95 C1985.44,7.79 1939.77,0.35 1874.28,0.35 L1463.95,0.35 L1463.95,178.08 L1618.67,178.08 L1618.32,129.58 L1618.32,129.58 L1618.3,129.58 Z" id="Path" fill="#868787"></path>
                </g>
            </g>
        </g>
    </g>
</svg>